<?xml version="1.0" encoding="UTF-8" standalone="no"?>
<!-- Created with Inkscape (http://www.inkscape.org/) -->

<svg
   xmlns:dc="http://purl.org/dc/elements/1.1/"
   xmlns:cc="http://creativecommons.org/ns#"
   xmlns:rdf="http://www.w3.org/1999/02/22-rdf-syntax-ns#"
   xmlns:svg="http://www.w3.org/2000/svg"
   xmlns="http://www.w3.org/2000/svg"
   xmlns:sodipodi="http://sodipodi.sourceforge.net/DTD/sodipodi-0.dtd"
   xmlns:inkscape="http://www.inkscape.org/namespaces/inkscape"
   width="288"
   height="288"
   id="svg2"
   version="1.1"
   inkscape:version="0.48.5 r10040"
   sodipodi:docname="Documento nuevo 1">
  <defs
     id="defs4" />
  <sodipodi:namedview
     id="base"
     pagecolor="#ffffff"
     bordercolor="#666666"
     borderopacity="1.0"
     inkscape:pageopacity="0.0"
     inkscape:pageshadow="2"
     inkscape:zoom="0.35"
     inkscape:cx="233.99999"
     inkscape:cy="-110.28572"
     inkscape:document-units="px"
     inkscape:current-layer="layer1"
     showgrid="false"
     fit-margin-top="0"
     fit-margin-left="0"
     fit-margin-right="0"
     fit-margin-bottom="0"
     inkscape:window-width="1564"
     inkscape:window-height="877"
     inkscape:window-x="36"
     inkscape:window-y="0"
     inkscape:window-maximized="1" />
  <metadata
     id="metadata7">
    <rdf:RDF>
      <cc:Work
         rdf:about="">
        <dc:format>image/svg+xml</dc:format>
        <dc:type
           rdf:resource="http://purl.org/dc/dcmitype/StillImage" />
        <dc:title></dc:title>
      </cc:Work>
    </rdf:RDF>
  </metadata>
  <g
     inkscape:label="Capa 1"
     inkscape:groupmode="layer"
     id="layer1"
     transform="translate(-116.00001,-134.07646)">
    <g
       id="g3007"
       transform="translate(-22.857141,-114.28571)">
      <path
         style="fill:#e4f40c"
         d="m 138.85715,392.36217 0,-144 144,0 144,0 0,144 0,144 -144,0 -144,0 0,-144 z"
         id="path3015"
         inkscape:connector-curvature="0" />
      <path
         style="fill:#4365fd"
         d="m 138.85715,392.36217 0,-144 144,0 144,0 0,144 0,144 -144,0 -144,0 0,-144 z m 144.20794,104.25 0.29206,-7.75 7.5,0 7.5,0 0.29281,7.79129 0.29281,7.7913 7.70719,-0.2913 7.70719,-0.29129 0,-7.5 0,-7.5 -7.70868,-0.29132 -7.70868,-0.29132 -0.29132,-7.70868 -0.29132,-7.70868 -7.5,0 -7.5,0 -0.29132,7.70868 -0.29132,7.70868 -7.70868,0.29132 -7.70868,0.29132 -0.30147,6.39467 c -0.16581,3.51707 -0.0674,7.00457 0.21861,7.75 0.37357,0.9735 2.63003,1.35533 8.00941,1.35533 l 7.48932,0 0.29207,-7.75 z m -32.41662,-32.45868 0.29132,-7.70868 7.70868,-0.29132 7.70868,-0.29132 0.29132,-7.70868 0.29132,-7.70868 7.70868,-0.29132 7.70868,-0.29132 0,-7.5 0,-7.5 -7.70719,-0.29129 -7.70719,-0.2913 -0.29281,7.7913 -0.29281,7.79129 -7.70868,0.29132 -7.70868,0.29132 -0.29132,7.70868 -0.29132,7.70868 -15.5,0 -15.5,0 0,-15.5 0,-15.5 7.79129,-0.29281 7.7913,-0.29281 -0.2913,-7.70719 -0.29129,-7.70719 -7.5,0 -7.5,0 -0.29132,7.70868 -0.29132,7.70868 -7.70868,0.29132 -7.70868,0.29132 0,15.5 0,15.5 7.75,0.29206 7.75,0.29207 0,7.29127 c 0,4.0102 0.31126,7.60252 0.69168,7.98295 0.38042,0.38042 7.46792,0.56792 15.75,0.41666 l 15.05832,-0.27501 0.29132,-7.70868 z m 96,0 0.29132,-7.70868 7.70868,-0.29132 7.70868,-0.29132 0,-15.5 0,-15.5 -7.70868,-0.29132 -7.70868,-0.29132 -0.29132,-7.70868 -0.29132,-7.70868 -7.70868,-0.29132 -7.70868,-0.29132 -0.29132,-7.70868 -0.29132,-7.70868 -7.5,0 -7.5,0 -0.29129,7.70719 -0.2913,7.70719 7.7913,0.29281 7.79129,0.29281 0.29132,7.70868 0.29132,7.70868 7.70868,0.29132 7.70868,0.29132 0,15.5 0,15.5 -15.5,0 -15.5,0 -0.29281,-7.79129 -0.29281,-7.7913 -7.70719,0.2913 -7.70719,0.29129 0,7.5 0,7.5 7.75,0.29206 7.75,0.29207 0,7.29127 c 0,4.0102 0.31126,7.60252 0.69168,7.98295 0.38042,0.38042 7.46792,0.56792 15.75,0.41666 l 15.05832,-0.27501 0.29132,-7.70868 z m -160,-48 0.29132,-7.70868 7.70868,-0.29132 7.70868,-0.29132 0,-7.5 0,-7.5 -7.70868,-0.29132 -7.70868,-0.29132 -0.29132,-7.70868 -0.29132,-7.70868 -7.5,0 -7.5,0 -0.29129,7.70719 -0.2913,7.70719 7.7913,0.29281 7.79129,0.29281 0,7.5 0,7.5 -7.75,0.29206 -7.75,0.29207 0,7.29127 c 0,4.0102 0.31784,7.60911 0.70631,7.99758 0.38847,0.38847 3.87597,0.57597 7.75,0.41667 l 7.04369,-0.28965 0.29132,-7.70868 z m 207.99997,-15.99851 0.2913,-7.70719 -7.7913,-0.29281 -7.79129,-0.29281 0,-7.5 0,-7.5 7.79129,-0.29281 7.7913,-0.29281 -0.2913,-7.70719 -0.29129,-7.70719 -7.5,0 -7.5,0 -0.29132,7.70868 -0.29132,7.70868 -7.70868,0.29132 -7.70868,0.29132 0,7.5 0,7.5 7.75,0.29206 7.75,0.29207 0,7.29127 c 0,4.0102 0.31784,7.60911 0.70631,7.99758 0.38847,0.38847 3.87597,0.57597 7.75,0.41667 l 7.04369,-0.28965 0.29129,-7.70719 z m -144,-16 0.2913,-7.70719 -7.7913,-0.29281 -7.79129,-0.29281 -0.29132,-7.70868 -0.29132,-7.70868 -7.70868,-0.29132 -7.70868,-0.29132 0,-15.5 0,-15.5 15.5,0 15.5,0 0.29281,7.79129 0.29281,7.7913 7.70719,-0.2913 7.70719,-0.29129 0,-7.5 0,-7.5 -7.70868,-0.29132 -7.70868,-0.29132 -0.29132,-7.70868 -0.29132,-7.70868 -15.5,0 -15.5,0 -0.29132,7.70868 -0.29132,7.70868 -7.70868,0.29132 -7.70868,0.29132 0,15.5 0,15.5 7.70868,0.29132 7.70868,0.29132 0.29132,7.70868 0.29132,7.70868 7.75,0.29206 7.75,0.29207 0,7.29127 c 0,4.0102 0.31784,7.60911 0.70631,7.99758 0.38847,0.38847 3.87597,0.57597 7.75,0.41667 l 7.04369,-0.28965 0.29129,-7.70719 z m 96.00003,-16.00149 0.29132,-7.70868 7.70868,-0.29132 7.70868,-0.29132 0,-15.5 0,-15.5 -7.70868,-0.29132 -7.70868,-0.29132 -0.29132,-7.70868 -0.29132,-7.70868 -15.5,0 -15.5,0 -0.29132,7.70868 -0.29132,7.70868 -7.70868,0.29132 -7.70868,0.29132 -0.29132,7.70868 -0.29132,7.70868 -7.70868,0.29132 -7.70868,0.29132 0,7.5 0,7.5 7.70719,0.29129 7.70719,0.2913 0.29281,-7.7913 0.29281,-7.79129 7.70868,-0.29132 7.70868,-0.29132 0.29132,-7.70868 0.29132,-7.70868 15.5,0 15.5,0 0,15.5 0,15.5 -7.75,0.29206 -7.75,0.29207 0,7.29127 c 0,4.0102 0.31784,7.60911 0.70631,7.99758 0.38847,0.38847 3.87597,0.57597 7.75,0.41667 l 7.04369,-0.28965 0.29132,-7.70868 z m -64,-64 0.29132,-7.70868 7.70868,-0.29132 7.70868,-0.29132 0,-7.5 0,-7.5 -7.70719,-0.29129 -7.70719,-0.2913 -0.29281,7.7913 -0.29281,7.79129 -7.5,0 -7.5,0 -0.29281,-7.79129 -0.29281,-7.7913 -7.70719,0.2913 -7.70719,0.29129 0,7.5 0,7.5 7.75,0.29206 7.75,0.29207 0,7.29127 c 0,4.0102 0.31784,7.60911 0.70631,7.99758 0.38847,0.38847 3.87597,0.57597 7.75,0.41666 l 7.04369,-0.28964 0.29132,-7.70868 z"
         id="path3013"
         inkscape:connector-curvature="0" />
      <path
         style="fill:#53e803"
         d="m 282.64921,528.61217 -0.29206,-7.75 -7.5,-0.5 -7.5,-0.5 -0.28872,-8 -0.28871,-8 7.9953,0.32478 7.99531,0.32479 0.29341,-7.82479 0.29341,-7.82478 7.5,0 7.5,0 0.29341,7.82478 0.29341,7.82479 7.99531,-0.32479 7.9953,-0.32478 -0.28871,8 -0.28872,8 -7.5,0.5 -7.5,0.5 -0.29206,7.75 -0.29207,7.75 -7.91587,0 -7.91587,0 -0.29207,-7.75 z M 219.3071,455.09235 c -0.27904,-0.72719 -0.38194,-7.82646 -0.22865,-15.77617 l 0.2787,-14.45401 7.83334,-0.29356 7.83335,-0.29357 -0.18343,-8.20643 c -0.10089,-4.51354 -0.13914,-11.80644 -0.085,-16.20644 l 0.0984,-8 7.75167,0 7.75166,0 0.29129,-7.70719 0.2913,-7.70719 -7.7913,-0.29281 -7.79129,-0.29281 -0.29132,-7.70868 -0.29132,-7.70868 -7.70868,-0.29132 -7.70868,-0.29132 0,-15.5 0,-15.5 15.5,0 15.5,0 0.29356,7.83335 0.29357,7.83334 8.20643,-0.18343 c 4.51354,-0.10089 11.80644,-0.13914 16.20644,-0.085 l 8,0.0984 0,7.75167 0,7.75166 7.70719,0.29129 7.70719,0.2913 0.29281,-7.7913 0.29281,-7.79129 7.70868,-0.29132 7.70868,-0.29132 0.29132,-7.70868 0.29132,-7.70868 15.5,0 15.5,0 0,15.5 0,15.5 -7.83334,0.29356 -7.83335,0.29357 0.18343,8.20643 c 0.10089,4.51354 0.13914,11.80644 0.085,16.20644 l -0.0984,8 -7.75167,0 -7.75166,0 -0.29129,7.70719 -0.2913,7.70719 7.7913,0.29281 7.79129,0.29281 0.29132,7.70868 0.29132,7.70868 7.70868,0.29132 7.70868,0.29132 0,15.5 0,15.5 -15.5,0 -15.5,0 -0.29356,-7.83334 -0.29357,-7.83335 -8.20643,0.18343 c -4.51354,0.10089 -11.80644,0.13914 -16.20644,0.085 l -8,-0.0984 0,-7.75167 0,-7.75166 -7.70719,-0.29129 -7.70719,-0.2913 -0.29281,7.7913 -0.29282,7.79128 -7.70868,0.29132 -7.70868,0.29132 -0.29132,7.70868 -0.29132,7.70868 -15.27135,0.27616 c -11.93673,0.21586 -15.38213,-0.0125 -15.7787,-1.04598 z m -63.95753,-31.98018 c -0.24465,-0.6875 -0.56803,-4.175 -0.71862,-7.75 l -0.2738,-6.5 -7.75,-0.29206 -7.75,-0.29207 0,-7.91587 0,-7.91587 7.75,-0.29207 7.75,-0.29206 0.5,-7.5 0.5,-7.5 8,-0.28872 8,-0.28871 -0.32478,7.9953 -0.32479,7.99531 7.82479,0.29341 7.82478,0.29341 0,7.5 0,7.5 -7.82478,0.29341 -7.82479,0.29341 0.32479,7.95894 0.32478,7.95894 -7.78139,-0.002 c -5.31941,-0.002 -7.92212,-0.39784 -8.22619,-1.25235 z m 239.33236,-22.66787 0.32479,-7.99531 -7.82479,-0.29341 -7.82478,-0.29341 0,-7.5 0,-7.5 7.82478,-0.29341 7.82479,-0.29341 -0.32479,-7.99531 -0.32478,-7.9953 8,0.28871 8,0.28872 0.5,7.5 0.5,7.5 7.75,0.29206 7.75,0.29207 0,7.91587 0,7.91587 -7.75,0.29207 -7.75,0.29206 -0.5,7.5 -0.5,7.5 -8,0.28872 -8,0.28871 0.32478,-7.9953 z M 267.56346,295.73515 c -0.38847,-0.38847 -0.70631,-4.04058 -0.70631,-8.11579 l 0,-7.40948 -8.03872,0.32614 -8.03871,0.32615 0.28871,-8 0.28872,-8 7.5,-0.5 7.5,-0.5 0.29206,-7.75 0.29207,-7.75 7.91587,0 7.91587,0 0.29207,7.75 0.29206,7.75 7.5,0.5 7.5,0.5 0.28872,8 0.28871,8 -7.9953,-0.32478 -7.99531,-0.32479 -0.29341,7.82479 -0.29341,7.82478 -7.04369,0.28964 c -3.87403,0.15931 -7.36153,-0.0282 -7.75,-0.41666 z"
         id="path3011"
         inkscape:connector-curvature="0" />
      <path
         style="fill:#016600"
         d="m 283.36649,423.15627 c -0.25395,-0.71175 -0.58495,-4.2191 -0.73554,-7.7941 l -0.2738,-6.5 -15.5,-0.5 -15.5,-0.5 0,-7.5 0,-7.5 7.5,-0.5 7.5,-0.5 0.5,-15.5 0.5,-15.5 7.5,0 7.5,0 0.5,7.5 0.5,7.5 15.5,0.5 15.5,0.5 0,7.5 0,7.5 -7.5,0.5 -7.5,0.5 -0.5,15.5 -0.5,15.5 -7.26446,0.2941 c -5.25459,0.21273 -7.39221,-0.0639 -7.7262,-1 z"
         id="path3009"
         inkscape:connector-curvature="0" />
    </g>
  </g>
</svg>
